<svg width="81" height="81" viewBox="0 0 81 81" fill="none" xmlns="http://www.w3.org/2000/svg">
<g clip-path="url(#clip0_2_161)">
<path d="M18.2539 57.5026C17.3721 57.5026 16.5645 57.5026 15.698 57.5026C15.698 56.6173 15.698 55.7931 15.698 54.8707C15.9905 54.8707 16.2786 54.8707 16.5689 54.8707C21.8794 54.8707 27.1899 54.8816 32.4982 54.8685C39.5876 54.8489 45.3762 50.0714 46.7665 43.1177C48.3468 35.2089 42.591 27.25 34.5762 26.2797C33.7948 26.1859 33.0024 26.1379 32.2167 26.1358C27.0153 26.1227 21.8139 26.1292 16.6125 26.1292C16.3179 26.1292 16.0254 26.1292 15.6849 26.1292C15.6849 25.2614 15.6849 24.4546 15.6849 23.5584C16.4881 23.5584 17.3154 23.5584 18.2517 23.5584C18.2517 23.1833 18.2517 22.8955 18.2517 22.6077C18.2517 17.3831 18.2496 12.1564 18.2517 6.93188C18.2539 2.78452 21.0172 0.00434523 25.1491 0.00434523C41.4648 -1.58163e-05 57.7761 -1.58162e-05 74.0874 0.00216471C78.2236 0.00216471 80.9956 2.77579 80.9978 6.91879C81 29.3172 81 51.7155 80.9978 74.1117C80.9978 78.2024 78.2149 80.9934 74.1354 80.9956C57.7979 81 41.4582 81 25.1207 80.9956C21.0412 80.9956 18.2627 78.2024 18.2583 74.1139C18.2539 68.8893 18.2561 63.6626 18.2561 58.4381C18.2539 58.1459 18.2539 57.8537 18.2539 57.5026ZM20.8688 23.517C21.2617 23.517 21.5542 23.517 21.8488 23.517C25.3608 23.517 28.8749 23.4908 32.3869 23.5322C33.5787 23.5475 34.7835 23.6478 35.9556 23.8593C44.7934 25.4663 51.0184 34.4719 49.4032 43.2616C47.8513 51.7068 40.9671 57.4634 32.3869 57.483C28.8466 57.4895 25.3062 57.4852 21.7681 57.4852C21.4821 57.4852 21.194 57.4852 20.8688 57.4852C20.8688 57.8188 20.8688 58.0347 20.8688 58.2484C20.8688 63.5558 20.8644 68.861 20.871 74.1684C20.8732 76.7632 22.5058 78.3855 25.1141 78.3855C37.9659 78.3877 50.8198 78.3877 63.6716 78.3855C66.2842 78.3855 67.9235 76.7654 67.9256 74.1771C67.9278 51.7264 67.9278 29.2735 67.9256 6.82285C67.9256 4.26073 66.2973 2.6188 63.7523 2.6188C50.846 2.61443 37.9375 2.61443 25.0312 2.6188C22.532 2.6188 20.8797 4.26727 20.871 6.75307C20.8622 9.23015 20.8688 11.705 20.8688 14.1821C20.8688 17.2523 20.8688 20.3247 20.8688 23.517ZM69.2418 2.62098C70.1433 3.99253 70.5492 5.35972 70.5492 6.87518C70.5383 29.2953 70.5383 51.7155 70.5471 74.1357C70.5471 75.5072 70.2393 76.7698 69.5168 77.9363C69.4426 78.0563 69.4055 78.2002 69.3291 78.3855C70.8788 78.3855 72.3478 78.3855 73.8167 78.3855C76.8813 78.3855 78.3851 76.8875 78.3851 73.8391C78.3851 51.6087 78.3851 29.3804 78.3851 7.14993C78.3851 6.8512 78.3939 6.55028 78.372 6.25155C78.2345 4.31088 76.6477 2.69947 74.7029 2.63406C72.9349 2.57518 71.1648 2.62098 69.2418 2.62098Z" fill="#FFBB41"/>
<path d="M26.116 52.4437C26.116 44.3845 26.116 36.6306 26.116 28.7872C29.4315 28.6891 32.7449 28.4623 35.7766 30.2438C38.577 31.8923 40.4738 34.2494 41.3534 37.3872C43.1061 43.6279 39.4152 50.2174 33.0657 51.7896C30.8656 52.3369 28.5017 52.2388 26.116 52.4437ZM28.7462 49.6265C32.8867 49.8446 36.1324 48.4098 38.0685 44.7661C39.8954 41.3274 39.5505 37.9127 37.1605 34.8338C35.0454 32.1103 32.1403 31.1313 28.7462 31.3929C28.7462 37.5028 28.7462 43.5276 28.7462 49.6265Z" fill="#FFBB41"/>
<path d="M9.13897 31.3559C9.13897 30.4423 9.13897 29.6376 9.13897 28.7414C10.7956 28.7414 12.4217 28.7305 14.0457 28.7458C15.3509 28.7567 16.6758 28.6629 17.9571 28.8592C20.6505 29.2735 22.4469 30.8827 23.2087 33.4928C23.9661 36.0898 23.1934 38.3118 21.2508 40.1543C21.1526 40.2481 21.0478 40.3331 20.7444 40.6013C20.9801 40.7365 21.2202 40.8194 21.3883 40.9786C23.3724 42.8342 23.9988 45.5664 23.0319 48.0784C22.0758 50.562 19.7316 52.2192 17.0425 52.2497C14.432 52.2802 11.8237 52.2562 9.16079 52.2562C9.16079 51.3818 9.16079 50.5576 9.16079 49.6461C10.1779 49.6461 11.1776 49.6461 12.1773 49.6461C13.8099 49.6461 15.4448 49.6767 17.0774 49.6352C19.2012 49.5807 20.8753 47.8189 20.8688 45.7103C20.8601 43.6039 19.1772 41.8508 17.0469 41.8202C14.4364 41.7832 11.8259 41.8115 9.16298 41.8115C9.16298 40.9349 9.16298 40.1085 9.16298 39.1949C10.012 39.1949 10.848 39.1949 11.684 39.1949C13.4542 39.1949 15.2243 39.2167 16.9945 39.1862C19.1728 39.1491 20.8753 37.4003 20.871 35.2612C20.8644 33.1221 19.1532 31.3864 16.9705 31.3624C14.3818 31.3363 11.7997 31.3559 9.13897 31.3559Z" fill="#FFBB41"/>
<path d="M2.52975 26.0965C1.66977 26.0965 0.864349 26.0965 0.00654793 26.0965C0.00654793 25.2526 0.00654793 24.4306 0.00654793 23.5605C0.842522 23.5605 1.66758 23.5605 2.52975 23.5605C2.52975 24.4001 2.52975 25.2047 2.52975 26.0965Z" fill="#FFBB41"/>
<path d="M7.76168 23.5583C7.76168 24.4066 7.76168 25.209 7.76168 26.0703C6.93226 26.0703 6.1072 26.0703 5.23412 26.0703C5.23412 25.2461 5.23412 24.424 5.23412 23.5583C6.05918 23.5583 6.86241 23.5583 7.76168 23.5583Z" fill="#FFBB41"/>
<path d="M10.442 26.0659C10.442 25.2198 10.442 24.4174 10.442 23.5648C11.2955 23.5648 12.1183 23.5648 12.9849 23.5648C12.9849 24.3956 12.9849 25.198 12.9849 26.0659C12.1729 26.0659 11.3479 26.0659 10.442 26.0659Z" fill="#FFBB41"/>
<path d="M0 54.9077C0.840339 54.9077 1.64357 54.9077 2.50792 54.9077C2.50792 55.7298 2.50792 56.5518 2.50792 57.4284C1.69159 57.4284 0.868715 57.4284 0 57.4284C0 56.6129 0 55.8083 0 54.9077Z" fill="#FFBB41"/>
<path d="M7.74204 57.4437C6.87114 57.4437 6.06573 57.4437 5.2232 57.4437C5.2232 56.602 5.2232 55.7974 5.2232 54.9318C6.03953 54.9318 6.86241 54.9318 7.74204 54.9318C7.74204 55.7407 7.74204 56.5628 7.74204 57.4437Z" fill="#FFBB41"/>
<path d="M10.4464 57.4393C10.4464 56.5911 10.4464 55.7887 10.4464 54.9274C11.2758 54.9274 12.1009 54.9274 12.974 54.9274C12.974 55.7516 12.974 56.5737 12.974 57.4393C12.1489 57.4393 11.3457 57.4393 10.4464 57.4393Z" fill="#FFBB41"/>
<path d="M20.8688 23.5169C20.8688 20.3246 20.8688 17.2522 20.8688 14.1799C20.8688 11.7028 20.8622 9.2279 20.871 6.75083C20.8797 4.26503 22.532 2.61655 25.0312 2.61655C37.9375 2.61219 50.846 2.61219 63.7523 2.61655C66.2973 2.61655 67.9256 4.25849 67.9256 6.8206C67.9278 29.2713 67.9278 51.7242 67.9256 74.1749C67.9256 76.7631 66.2864 78.3833 63.6715 78.3833C50.8198 78.3855 37.9659 78.3855 25.1141 78.3833C22.5036 78.3833 20.8732 76.761 20.871 74.1661C20.8666 68.8587 20.8688 63.5535 20.8688 58.2461C20.8688 58.0302 20.8688 57.8166 20.8688 57.4829C21.194 57.4829 21.4821 57.4829 21.7681 57.4829C25.3084 57.4829 28.8487 57.4895 32.3869 57.4807C40.9649 57.4633 47.8513 51.7045 49.4032 43.2594C51.0184 34.4697 44.7934 25.4641 35.9556 23.857C34.7835 23.6434 33.5787 23.5431 32.3869 23.53C28.8749 23.4885 25.3608 23.5147 21.8488 23.5147C21.5563 23.5169 21.2617 23.5169 20.8688 23.5169ZM40.4585 5.23972C35.5256 5.23972 30.6626 5.21356 25.7995 5.25935C24.6427 5.27025 23.5819 6.306 23.5273 7.46386C23.4422 9.29986 23.5055 11.1446 23.5055 13.0177C24.3851 13.0177 25.2102 13.0177 26.1226 13.0177C26.1226 11.2754 26.1226 9.57897 26.1226 7.79966C30.9551 7.79966 35.6981 7.79966 40.4585 7.79966C40.4585 6.92745 40.4585 6.14246 40.4585 5.23972ZM65.3129 60.1432C64.3722 60.1432 63.5668 60.1432 62.6762 60.1432C62.6762 64.4955 62.6762 68.802 62.6762 73.1936C60.8951 73.1936 59.1992 73.1936 57.512 73.1936C57.512 74.0876 57.512 74.8923 57.512 75.771C59.1512 75.771 60.7489 75.7732 62.3466 75.771C64.2849 75.7666 65.3086 74.7418 65.3107 72.7946C65.3151 68.826 65.3107 64.8575 65.3107 60.8867C65.3129 60.6512 65.3129 60.4136 65.3129 60.1432ZM45.6446 7.8062C45.6446 6.90783 45.6446 6.08359 45.6446 5.26589C44.7781 5.26589 43.9749 5.26589 43.1367 5.26589C43.1367 6.1272 43.1367 6.95144 43.1367 7.8062C43.9879 7.8062 44.7912 7.8062 45.6446 7.8062ZM65.2496 52.2257C65.2496 51.3208 65.2496 50.4965 65.2496 49.6854C64.3809 49.6854 63.5777 49.6854 62.7461 49.6854C62.7461 50.551 62.7461 51.3731 62.7461 52.2257C63.5995 52.2257 64.4027 52.2257 65.2496 52.2257ZM65.2736 54.9165C64.3722 54.9165 63.5668 54.9165 62.7504 54.9165C62.7504 55.7865 62.7504 56.6085 62.7504 57.4241C63.6279 57.4241 64.4529 57.4241 65.2736 57.4241C65.2736 56.5584 65.2736 55.7538 65.2736 54.9165ZM23.5382 60.1345C23.5382 61.0132 23.5382 61.8374 23.5382 62.6464C24.4179 62.6464 25.2429 62.6464 26.0571 62.6464C26.0571 61.7807 26.0571 60.9761 26.0571 60.1345C25.2146 60.1345 24.4091 60.1345 23.5382 60.1345ZM23.5208 67.8906C24.42 67.8906 25.2255 67.8906 26.0483 67.8906C26.0483 67.0227 26.0483 66.2007 26.0483 65.3786C25.1731 65.3786 24.3502 65.3786 23.5208 65.3786C23.5208 66.2421 23.5208 67.0445 23.5208 67.8906ZM23.5273 70.5814C23.5273 71.4797 23.5273 72.2822 23.5273 73.1086C24.3939 73.1086 25.2167 73.1086 26.0418 73.1086C26.0418 72.2342 26.0418 71.4121 26.0418 70.5814C25.1774 70.5814 24.3742 70.5814 23.5273 70.5814Z" fill="white"/>
<path d="M69.2418 2.62097C71.1648 2.62097 72.9349 2.57518 74.7007 2.63405C76.6455 2.69947 78.2323 4.31088 78.3698 6.25155C78.3917 6.55028 78.3829 6.84901 78.3829 7.14992C78.3829 29.3804 78.3829 51.6087 78.3829 73.8391C78.3829 76.8875 76.8769 78.3855 73.8145 78.3855C72.3456 78.3855 70.8766 78.3855 69.3269 78.3855C69.4033 78.198 69.4404 78.0563 69.5146 77.9363C70.2371 76.7719 70.5471 75.5072 70.5449 74.1357C70.5361 51.7155 70.5361 29.2953 70.547 6.87518C70.5492 5.35971 70.1454 3.99252 69.2418 2.62097Z" fill="white"/>
<path d="M28.7462 49.6265C28.7462 43.5276 28.7462 37.5006 28.7462 31.3929C32.1403 31.1291 35.0454 32.1103 37.1605 34.8338C39.5505 37.9127 39.8954 41.3274 38.0685 44.7661C36.1324 48.4098 32.8867 49.8445 28.7462 49.6265Z" fill="white"/>
<path d="M40.4585 5.23982C40.4585 6.14037 40.4585 6.92754 40.4585 7.79757C35.7002 7.79757 30.955 7.79757 26.1226 7.79757C26.1226 9.5747 26.1226 11.2711 26.1226 13.0156C25.2102 13.0156 24.3851 13.0156 23.5055 13.0156C23.5055 11.1425 23.4422 9.29995 23.5273 7.46177C23.5819 6.30391 24.6427 5.26816 25.7995 5.25726C30.6648 5.21583 35.5278 5.23982 40.4585 5.23982Z" fill="#FFBB41"/>
<path d="M65.3129 60.1432C65.3129 60.4136 65.3129 60.6512 65.3129 60.8889C65.3129 64.8575 65.3151 68.826 65.3129 72.7968C65.3107 74.7418 64.2871 75.7666 62.3488 75.7732C60.7511 75.7775 59.1534 75.7732 57.5141 75.7732C57.5141 74.8944 57.5141 74.0898 57.5141 73.1958C59.2014 73.1958 60.8973 73.1958 62.6784 73.1958C62.6784 68.8042 62.6784 64.4977 62.6784 60.1454C63.5646 60.1432 64.37 60.1432 65.3129 60.1432Z" fill="#FFBB41"/>
<path d="M45.6446 7.80618C44.7912 7.80618 43.988 7.80618 43.1367 7.80618C43.1367 6.95142 43.1367 6.12718 43.1367 5.26587C43.9749 5.26587 44.7781 5.26587 45.6446 5.26587C45.6446 6.08357 45.6446 6.90781 45.6446 7.80618Z" fill="#FFBB41"/>
<path d="M65.2496 52.2257C64.4027 52.2257 63.5995 52.2257 62.7461 52.2257C62.7461 51.3731 62.7461 50.5511 62.7461 49.6854C63.5755 49.6854 64.3809 49.6854 65.2496 49.6854C65.2496 50.4966 65.2496 51.3208 65.2496 52.2257Z" fill="#FFBB41"/>
<path d="M65.2736 54.9165C65.2736 55.756 65.2736 56.5584 65.2736 57.4241C64.4529 57.4241 63.6279 57.4241 62.7504 57.4241C62.7504 56.6086 62.7504 55.7865 62.7504 54.9165C63.5668 54.9165 64.3722 54.9165 65.2736 54.9165Z" fill="#FFBB41"/>
<path d="M23.5382 60.1345C24.4091 60.1345 25.2146 60.1345 26.0571 60.1345C26.0571 60.9762 26.0571 61.7808 26.0571 62.6465C25.2407 62.6465 24.4179 62.6465 23.5382 62.6465C23.5382 61.8375 23.5382 61.0133 23.5382 60.1345Z" fill="#FFBB41"/>
<path d="M23.5208 67.8906C23.5208 67.0446 23.5208 66.2421 23.5208 65.3787C24.348 65.3787 25.1731 65.3787 26.0483 65.3787C26.0483 66.2007 26.0483 67.0228 26.0483 67.8906C25.2233 67.8906 24.4201 67.8906 23.5208 67.8906Z" fill="#FFBB41"/>
<path d="M23.5273 70.5814C24.3742 70.5814 25.1796 70.5814 26.0418 70.5814C26.0418 71.4122 26.0418 72.2343 26.0418 73.1087C25.2189 73.1087 24.3939 73.1087 23.5273 73.1087C23.5273 72.2844 23.5273 71.4798 23.5273 70.5814Z" fill="#FFBB41"/>
</g>
<defs>
<clipPath id="clip0_2_161">
<rect width="81" height="81" fill="white"/>
</clipPath>
</defs>
</svg>
