<svg width="92" height="81" viewBox="0 0 92 81" fill="none" xmlns="http://www.w3.org/2000/svg">
<path d="M32.3717 80.6592C14.7476 80.6592 0.408752 66.1728 0.408752 48.3663C0.408752 30.5591 14.7476 16.072 32.3717 16.072V18.9225C16.319 18.9225 3.25928 32.1312 3.25928 48.3663C3.25928 64.6008 16.319 77.8087 32.3717 77.8087C45.1891 77.8087 56.361 69.5008 60.1714 57.1345L62.8951 57.974C58.7148 71.5425 46.4483 80.6592 32.3717 80.6592Z" fill="#44D4D7"/>
<path d="M38.5915 19.5668C36.5514 19.1206 34.4692 18.8958 32.3809 18.8962V16.0457C34.6799 16.0457 36.9745 16.2944 39.2029 16.7825L38.5915 19.5668V19.5668Z" fill="#44D4D7"/>
<path d="M32.3809 80.6841C21.6672 80.6841 13.2745 66.4871 13.2745 48.3634C13.2745 30.2405 21.6672 16.0442 32.3809 16.0442V18.8947C23.4174 18.8947 16.125 32.1147 16.125 48.3634C16.125 64.6135 23.4174 77.8336 32.3809 77.8336C40.2768 77.8336 47.1744 67.1541 48.4257 52.9913L51.2649 53.2421C49.8603 69.143 41.918 80.6841 32.3809 80.6841V80.6841Z" fill="#44D4D7"/>
<path d="M30.955 17.4702H33.8055V79.2574H30.955V17.4702Z" fill="#44D4D7"/>
<path d="M60.9524 60.6785H2.81241L2.46678 59.7499C1.08998 56.0492 0.391602 52.2189 0.391602 48.3642C0.391602 44.5039 1.09141 40.6721 2.47106 36.9743L2.8174 36.0471H40.125V38.8976H4.81276C3.77658 41.9464 3.24603 45.1442 3.24213 48.3642C3.24213 51.5575 3.76876 54.7359 4.80991 57.828H60.9524V60.6785Z" fill="#44D4D7"/>
<path d="M68.5127 55.819H58.5338L57.9458 48.6991C56.1557 48.1712 54.4433 47.4088 52.8534 46.4315L47.6483 50.8826L40.6068 43.7605L45.1655 38.3103C44.2644 36.6513 43.5856 34.8809 43.1466 33.0447L36.3553 32.4725V22.4187L43.3982 21.8243C43.9207 20.0111 44.6785 18.2741 45.6522 16.6577L41.2539 11.4021L48.2997 4.28149L53.6964 8.89862C55.3284 7.99473 57.0732 7.31153 58.8851 6.86691L59.4509 0H69.4313L70.0185 7.12203C71.8088 7.64937 73.5212 8.41189 75.111 9.38962L80.3146 4.93853L87.3597 12.0606L82.7981 17.5093C83.6985 19.1695 84.3775 20.9405 84.8177 22.7771L91.6084 23.3472V33.4017L84.5662 33.9946C84.0438 35.8085 83.2858 37.546 82.3114 39.1626L86.7105 44.4169L79.6654 51.5382L74.2665 46.9218C72.6348 47.8248 70.8905 48.5075 69.0793 48.952L68.5127 55.819ZM61.1584 52.9684H65.8874L66.4133 46.5918L67.4751 46.3873C69.671 45.9665 71.7712 45.1467 73.6715 43.9686L74.5565 43.4206L79.5015 47.6501L82.858 44.2572L78.7675 39.3721L79.3647 38.4828C80.6252 36.6106 81.5372 34.5262 82.057 32.3299L82.2957 31.3258L88.7579 30.7814V25.9683L82.4468 25.4374L82.2458 24.372C81.83 22.1522 81.0182 20.0253 79.8493 18.093L79.3219 17.2207L83.51 12.2188L80.155 8.82665L75.3248 12.9585L74.4226 12.3392C72.5798 11.0704 70.5203 10.1497 68.346 9.62265L67.3461 9.37965L66.8081 2.8491H62.077L61.5517 9.22786L60.4892 9.43238C58.2932 9.85185 56.193 10.6717 54.2936 11.8511L53.4078 12.3998L48.4629 8.1696L45.1071 11.561L49.1969 16.4475L48.5997 17.3369C47.3405 19.2094 46.4287 21.2934 45.9081 23.489L45.6693 24.4917L39.2079 25.0376V29.8514L45.5218 30.383L45.7221 31.4491C46.1354 33.6676 46.9469 35.7929 48.1172 37.7224L48.646 38.594L44.4586 43.5995L47.8129 46.9916L52.6431 42.8612L53.5453 43.4805C55.3881 44.7488 57.4473 45.6694 59.6212 46.197L60.6203 46.44L61.1584 52.9684V52.9684Z" fill="#44D4D7"/>
<path d="M63.9825 40.3107C57.2097 40.3107 51.7003 34.7472 51.7003 27.9102C51.7003 21.0718 57.2097 15.509 63.9825 15.509C70.7547 15.509 76.264 21.0725 76.264 27.9102C76.2647 34.7472 70.7547 40.3107 63.9825 40.3107V40.3107ZM63.9825 18.3588C58.7818 18.3588 54.5509 22.6432 54.5509 27.9095C54.5509 33.1759 58.7825 37.4595 63.9825 37.4595C69.1826 37.4595 73.4135 33.1752 73.4135 27.9095C73.4142 22.6432 69.1833 18.3588 63.9825 18.3588Z" fill="#44D4D7"/>
</svg>
